<svg xmlns="http://www.w3.org/2000/svg" width="41" height="42" viewBox="0 0 41 42">
  <g fill="none" fill-rule="evenodd">
    <rect width="41" height="42" fill="#FFF"/>
    <path fill="#FFF" stroke="#131415" stroke-linecap="round" stroke-linejoin="round" stroke-width="2" d="M13.6109091,26.7381818 C8.17454545,28.3690909 8.17454545,24.02 6,23.4763636 M21.2218182,30 L21.2218182,25.7922545 C21.3043239,24.7434683 20.9320504,23.7098154 20.1997818,22.9544727 C23.6138182,22.5739273 27.2018182,21.2800727 27.2018182,15.3435636 C27.2015391,13.8255428 26.6176179,12.3657398 25.5709091,11.2662909 C26.0665487,9.93819439 26.0315039,8.47020532 25.4730545,7.16727273 C25.4730545,7.16727273 24.1900727,6.78672727 21.2218182,8.77643636 C18.729799,8.10104619 16.1029283,8.10104619 13.6109091,8.77643636 C10.6426545,6.78672727 9.35967273,7.16727273 9.35967273,7.16727273 C8.80122336,8.47020532 8.76617853,9.93819439 9.26181818,11.2662909 C8.20730184,12.3738953 7.62277917,13.8468924 7.63082541,15.3761818 C7.63082541,21.2692 11.2189091,22.5630545 14.6329455,22.9870909 C13.9094955,23.73466 13.537922,24.7545107 13.6109091,25.7922545 L13.6109091,30"/>
    <path fill="#000" fill-rule="nonzero" d="M11.4193511,6.00122 L9.67748179,6.00122 L9.67748179,4.04842651 L11.2148078,2.4598318 C11.4415706,2.22555258 11.4415706,1.84559385 11.2148078,1.61131463 C10.9880838,1.37703541 10.6204169,1.37703541 10.3936542,1.61131463 L9.47622888,2.55935147 C8.97745147,1.07135643 7.60754586,0 6,0 C4.39245414,0 3.02270337,1.07147643 2.52396467,2.55955147 L1.60634585,1.61131463 C1.37966051,1.37695541 1.01199363,1.37703541 0.785192163,1.61131463 C0.558390699,1.84559385 0.558429409,2.22551258 0.785192163,2.4598318 L2.32259563,4.0485065 L2.32259563,6.00122 L0.580648907,6.00122 C0.259975871,6.00122 0,6.2698591 0,6.601218 C0,6.93257689 0.259975871,7.201216 0.580648907,7.201216 L2.32778276,7.201216 C2.36087975,7.85377382 2.55419712,8.46325179 2.86755398,8.98841004 L0.944251253,10.9757234 C0.7174885,11.2100026 0.7174885,11.5898814 0.944251253,11.8242406 C1.05763263,11.9414402 1.20624004,12 1.35484745,12 C1.50341615,12 1.65206227,11.9414002 1.76540494,11.8242406 L3.62715888,9.900527 C4.26811786,10.4612451 5.09647159,10.799964 6.00011613,10.799964 C6.00085162,10.799964 6.0015484,10.799924 6.0023226,10.799924 C6.0027484,10.799924 6.00317421,10.800004 6.00360002,10.800004 C6.00433551,10.800004 6.00503229,10.799884 6.00576778,10.799884 C6.90712843,10.798484 7.73335312,10.4601251 8.37287983,9.900567 L10.2345951,11.8242406 C10.3479764,11.9414002 10.4965838,12 10.6451525,12 C10.79376,12 10.9423674,11.9414002 11.0557487,11.8242406 C11.2825115,11.5899214 11.2825115,11.2100426 11.0557487,10.9757234 L9.13252344,8.98849004 C9.44591901,8.46325179 9.63919767,7.85385382 9.67229466,7.201216 L11.4193511,7.201216 C11.7400241,7.201216 12,6.93257689 12,6.601218 C12,6.2698591 11.7400241,6.00122 11.4193511,6.00122 Z M6,1.199996 C7.18765928,1.199996 8.18575604,2.05459315 8.44855773,3.199996 L3.55151969,3.199996 C3.81428267,2.05459315 4.81234072,1.199996 6,1.199996 Z M3.48389344,6.99997667 L3.48389344,6.6290979 C3.48431925,6.61981793 3.48524829,6.61061796 3.48524829,6.601258 C3.48524829,6.59189803 3.48431925,6.58269806 3.48389344,6.57345809 L3.48389344,4.40002533 L5.42295112,4.40002533 L5.42295112,9.53016823 C4.31286653,9.25976913 3.48389344,8.22833257 3.48389344,6.99997667 Z M6.58424893,9.52848824 L6.58424893,4.39998533 L8.51618398,4.39998533 L8.51618398,6.57185809 C8.51571946,6.58161806 8.51475171,6.59129803 8.51475171,6.601218 C8.51475171,6.61113796 8.51571946,6.62081793 8.51618398,6.6305779 L8.51618398,6.99993667 C8.51618398,8.22581258 7.69073349,9.25552915 6.58424893,9.52848824 Z" transform="translate(23 22)"/>
  </g>
</svg>
