<svg xmlns="http://www.w3.org/2000/svg" width="41" height="42" viewBox="0 0 41 42">
  <g fill="none" fill-rule="evenodd">
    <rect width="41" height="42" fill="#FFF"/>
    <path fill="#FFF" stroke="#131415" stroke-linecap="round" stroke-linejoin="round" stroke-width="2" d="M16.6109091,29.7381818 C11.1745455,31.3690909 11.1745455,27.02 9,26.4763636 M24.2218182,33 L24.2218182,28.7922545 C24.3043239,27.7434683 23.9320504,26.7098154 23.1997818,25.9544727 C26.6138182,25.5739273 30.2018182,24.2800727 30.2018182,18.3435636 C30.2015391,16.8255428 29.6176179,15.3657398 28.5709091,14.2662909 C29.0665487,12.9381944 29.0315039,11.4702053 28.4730545,10.1672727 C28.4730545,10.1672727 27.1900727,9.78672727 24.2218182,11.7764364 C21.729799,11.1010462 19.1029283,11.1010462 16.6109091,11.7764364 C13.6426545,9.78672727 12.3596727,10.1672727 12.3596727,10.1672727 C11.8012234,11.4702053 11.7661785,12.9381944 12.2618182,14.2662909 C11.2073018,15.3738953 10.6227792,16.8468924 10.6308254,18.3761818 C10.6308254,24.2692 14.2189091,25.5630545 17.6329455,25.9870909 C16.9094955,26.73466 16.537922,27.7545107 16.6109091,28.7922545 L16.6109091,33"/>
  </g>
</svg>
