<svg width="167" height="151" viewBox="0 0 167 151" fill="none" xmlns="http://www.w3.org/2000/svg">
<path d="M39.2531 33.4605C58.9685 33.4605 71.9004 52.2359 71.9004 77.3121V80.5641C71.9004 106.657 56.936 122.205 38.9228 122.205C30.4878 122.231 24.2378 120.3 20.0965 116.082H19.2835V150.229H0V34.6038H18.8516V39.9391H19.5884C26.1687 33.6383 34.5528 33.4605 39.2531 33.4605ZM157.012 34.1719C157.876 34.1719 157.165 34.1973 158.003 34.1973L158.105 53.6332H155.691C144.868 53.6332 134.121 62.2206 134.121 73.0692V121.773H114.914V35.4168H132.698V40.7267H133.435C137.754 36.179 148.323 34.0448 157.012 34.1719ZM100.534 0.22876V121.697H81.2246V0.22876H100.534ZM36.6616 49.1617C24.6697 49.1617 18.2419 61.8649 18.2419 76.4229V82.0885C18.2419 95.9605 24.5681 106.58 36.9919 106.58C46.7734 106.555 53.9888 98.933 53.9888 82.1139V76.4229C53.9888 60.0865 47.7642 49.1617 36.6616 49.1617Z" fill="white"/>
<path d="M166.794 101.016H147.586V121.697H166.794V101.016Z" fill="#00BFFF"/>
</svg>
