<svg xmlns="http://www.w3.org/2000/svg" width="42" height="42" viewBox="0 0 42 42">
  <path fill="none" stroke="#1D1E1F" stroke-linejoin="round" stroke-width="2" d="M14,21.5023859 C14,17.9191461 17.1425422,15 21,15 C24.8574578,15 28,17.9191461 28,21.5023859 C28,22.4483612 27.7788391,23.3417824 27.38795,24.1492057 L22.7692873,19.8588732 L19.235856,23.1411209 L23.8545187,27.4314534 C22.9595885,27.808888 21.9875092,28 21.0051433,28 C17.1425422,28.0047718 14,25.0856257 14,21.5023859 Z M32.3762238,21.5 C32.3762238,19.3003497 31.6958042,17.2517483 30.5405594,15.5335664 L35,11.2333916 L31.6468531,8 L27.1874126,12.3001748 C25.4055944,11.1861888 23.2811189,10.5300699 21,10.5300699 C18.7188811,10.5300699 16.5944056,11.1861888 14.8125874,12.3001748 L10.3531469,8 L7,11.2333916 L11.4594406,15.5335664 C10.3041958,17.2517483 9.62377622,19.3003497 9.62377622,21.5 C9.62377622,23.6996503 10.3041958,25.7482517 11.4594406,27.4664336 L7,31.7666084 L10.3531469,35 L14.8125874,30.6998252 C16.5944056,31.8185315 18.713986,32.4699301 21,32.4699301 C23.286014,32.4699301 25.4055944,31.8138112 27.1874126,30.6998252 L31.6468531,35 L35,31.7666084 L30.5405594,27.4664336 C31.6958042,25.7482517 32.3762238,23.6996503 32.3762238,21.5 Z"/>
</svg>
